<?xml version="1.0" encoding="UTF-8" standalone="no"?>
<svg
   xmlns:osb="http://www.openswatchbook.org/uri/2009/osb"
   xmlns:dc="http://purl.org/dc/elements/1.1/"
   xmlns:cc="http://creativecommons.org/ns#"
   xmlns:rdf="http://www.w3.org/1999/02/22-rdf-syntax-ns#"
   xmlns:svg="http://www.w3.org/2000/svg"
   xmlns="http://www.w3.org/2000/svg"
   xmlns:sodipodi="http://sodipodi.sourceforge.net/DTD/sodipodi-0.dtd"
   xmlns:inkscape="http://www.inkscape.org/namespaces/inkscape"
   width="3.5mm"
   height="3.5mm"
   viewBox="0 0 3.5 3.5"
   version="1.1"
   id="svg8"
   inkscape:version="1.0 (4035a4fb49, 2020-05-01)"
   sodipodi:docname="polar_toggled.svg">
  <defs
     id="defs2">
    <linearGradient
       osb:paint="solid"
       id="linearGradient1378">
      <stop
         id="stop1376"
         offset="0"
         style="stop-color:#000000;stop-opacity:1;" />
    </linearGradient>
  </defs>
  <sodipodi:namedview
     id="base"
     pagecolor="#ffffff"
     bordercolor="#666666"
     borderopacity="1.0"
     inkscape:pageopacity="0.0"
     inkscape:pageshadow="2"
     inkscape:zoom="5.1130205"
     inkscape:cx="6.61216"
     inkscape:cy="53.696852"
     inkscape:document-units="mm"
     inkscape:current-layer="layer5"
     inkscape:document-rotation="0"
     showgrid="false"
     inkscape:window-width="1920"
     inkscape:window-height="1011"
     inkscape:window-x="-9"
     inkscape:window-y="-9"
     inkscape:window-maximized="1" />
  <metadata
     id="metadata5">
    <rdf:RDF>
      <cc:Work
         rdf:about="">
        <dc:format>image/svg+xml</dc:format>
        <dc:type
           rdf:resource="http://purl.org/dc/dcmitype/StillImage" />
        <dc:title />
      </cc:Work>
    </rdf:RDF>
  </metadata>
  <g
     inkscape:label="Rectangle"
     id="layer6"
     inkscape:groupmode="layer"
     transform="translate(-172.60204,-125.96507)">
    <path
       id="rect1332"
       style="font-variation-settings:normal;opacity:1;vector-effect:none;fill:#4d4d4d;fill-opacity:1;fill-rule:evenodd;stroke-width:2.3217;stroke-linecap:butt;stroke-linejoin:miter;stroke-miterlimit:4;stroke-dasharray:none;stroke-dashoffset:0;stroke-opacity:1;stop-color:#000000;stop-opacity:1"
       d="m 172.60204,125.96507 h 30.58672 c 0,0 0,0 0,0 v 30.74197 c 0,0 0,0 0,0 h -30.58672 c 0,0 0,0 0,0 v -30.74197 c 0,0 0,0 0,0 z" />
  </g>
  <g
     style="display:inline"
     inkscape:label="Grid"
     id="layer3"
     transform="matrix(8.2573913,0,0,8.2992811,-1423.5911,-1044.5896)">
    <path
       id="path1216"
       d="m 172.68197,127.31891 3.26653,0.0487 v 0 z"
       style="display:inline;fill:#f9f9f9;stroke:#969696;stroke-width:0.06;stroke-linecap:butt;stroke-linejoin:miter;stroke-miterlimit:4;stroke-dasharray:none;stroke-opacity:1" />
    <path
       id="path1244"
       d="m 175.16243,128.84854 -2.48046,-1.52963 2.92931,-0.83272"
       style="display:inline;fill:none;stroke:#969696;stroke-width:0.06;stroke-linecap:butt;stroke-linejoin:miter;stroke-miterlimit:4;stroke-dasharray:none;stroke-opacity:1" />
    <path
       id="path1246"
       d="m 174.16434,129.26786 -1.48237,-1.94895 2.97656,0.80911"
       style="display:inline;fill:none;stroke:#969696;stroke-width:0.06;stroke-linecap:butt;stroke-linejoin:miter;stroke-miterlimit:4;stroke-dasharray:none;stroke-opacity:1" />
    <path
       id="path1248"
       d="m 172.68197,127.31891 2.03162,-1.28157"
       style="display:inline;fill:#f9f9f9;stroke:#969696;stroke-width:0.06;stroke-linecap:butt;stroke-linejoin:miter;stroke-miterlimit:4;stroke-dasharray:none;stroke-opacity:1" />
    <path
       id="path1250"
       d="m 173.64462,129.44503 -0.96265,-2.12612 0.43113,2.12612"
       style="display:inline;fill:none;stroke:#969696;stroke-width:0.06;stroke-linecap:butt;stroke-linejoin:miter;stroke-miterlimit:4;stroke-dasharray:none;stroke-opacity:1" />
  </g>
  <g
     style="display:inline"
     inkscape:label="Draw"
     id="layer2"
     inkscape:groupmode="layer"
     transform="translate(-172.60204,-125.96507)">
    <path
       id="path1199"
       d="m 182.07947,130.14209 4.79324,-1.69828 3.13808,-0.17351 2.41377,0.55437 3.06903,1.69862 2.5863,2.35674 1.00004,2.98071"
       style="display:inline;fill:none;stroke:#cfcfcf;stroke-width:1.32453;stroke-linecap:butt;stroke-linejoin:miter;stroke-miterlimit:4;stroke-dasharray:none;stroke-opacity:1" />
    <path
       id="path1201"
       d="m 199.07993,135.86082 0.13769,3.15389 -0.48304,2.87667 -1.79287,2.84201 -2.00001,2.39145 -2.31043,2.21812 -2.51725,1.8369"
       style="display:inline;fill:none;stroke:#cfcfcf;stroke-width:1.32453;stroke-linecap:butt;stroke-linejoin:miter;stroke-miterlimit:4;stroke-dasharray:none;stroke-opacity:1" />
    <path
       id="path1203"
       d="m 190.11425,151.17986 -3.37941,1.97546"
       style="display:inline;fill:#f9f9f9;stroke:#cfcfcf;stroke-width:1.32453;stroke-linecap:butt;stroke-linejoin:miter;stroke-miterlimit:4;stroke-dasharray:none;stroke-opacity:1" />
    <path
       id="path1322"
       d="m 186.73484,153.15532 -4.73423,1.18326"
       style="display:inline;fill:#f9f9f9;stroke:#cfcfcf;stroke-width:1.32453;stroke-linecap:butt;stroke-linejoin:miter;stroke-miterlimit:4;stroke-dasharray:none;stroke-opacity:1" />
    <path
       id="path1324"
       d="m 182.00061,154.33858 -6.11848,0.11373"
       style="display:inline;fill:#f9f9f9;stroke:#cfcfcf;stroke-width:1.32453;stroke-linecap:butt;stroke-linejoin:miter;stroke-miterlimit:4;stroke-dasharray:none;stroke-opacity:1" />
  </g>
  <g
     inkscape:label="Dots"
     id="layer5"
     transform="translate(-172.60204,-125.96507)"
     style="display:inline"
     inkscape:groupmode="layer">
    <path
       d="m 180.52617,131.99659 a 0.74316525,0.74699217 0 0 1 -0.73019,-0.74362 0.74316525,0.74699217 0 0 1 0.72371,-0.75 0.74316525,0.74699217 0 0 1 0.76176,0.7109 0.74316525,0.74699217 0 0 1 -0.69047,0.78101"
       sodipodi:arc-type="arc"
       sodipodi:open="true"
       sodipodi:end="1.5009832"
       sodipodi:start="1.5882496"
       sodipodi:ry="0.74699217"
       sodipodi:rx="0.74316525"
       sodipodi:cy="131.24971"
       sodipodi:cx="180.53914"
       sodipodi:type="arc"
       id="path1260"
       style="display:inline;fill:#e6e6e6;fill-opacity:1;fill-rule:evenodd;stroke-width:2.99743" />
    <path
       d="m 177.62657,134.81225 a 0.74316525,0.74699217 0 0 1 -0.73019,-0.74362 0.74316525,0.74699217 0 0 1 0.72371,-0.75 0.74316525,0.74699217 0 0 1 0.76176,0.7109 0.74316525,0.74699217 0 0 1 -0.69047,0.78101"
       sodipodi:arc-type="arc"
       sodipodi:open="true"
       sodipodi:end="1.5009832"
       sodipodi:start="1.5882496"
       sodipodi:ry="0.74699217"
       sodipodi:rx="0.74316525"
       sodipodi:cy="134.06537"
       sodipodi:cx="177.63954"
       sodipodi:type="arc"
       id="path1260-0-9"
       style="display:inline;fill:#e6e6e6;fill-opacity:1;fill-rule:evenodd;stroke-width:2.99743" />
    <path
       style="display:inline;fill:#e6e6e6;fill-opacity:1;fill-rule:evenodd;stroke-width:2.99743"
       id="path1260-0-1-7"
       sodipodi:type="arc"
       sodipodi:cx="176.24588"
       sodipodi:cy="135.4435"
       sodipodi:rx="0.74316525"
       sodipodi:ry="0.74699217"
       sodipodi:start="1.5882496"
       sodipodi:end="1.5009832"
       sodipodi:open="true"
       sodipodi:arc-type="arc"
       d="m 176.23291,136.19038 a 0.74316525,0.74699217 0 0 1 -0.73019,-0.74362 0.74316525,0.74699217 0 0 1 0.72371,-0.75 0.74316525,0.74699217 0 0 1 0.76176,0.7109 0.74316525,0.74699217 0 0 1 -0.69047,0.78101" />
    <path
       style="display:inline;fill:#e6e6e6;fill-opacity:1;fill-rule:evenodd;stroke-width:2.99743"
       id="path1260-0"
       sodipodi:type="arc"
       sodipodi:cx="179.09805"
       sodipodi:cy="132.63052"
       sodipodi:rx="0.74316525"
       sodipodi:ry="0.74699217"
       sodipodi:start="1.5882496"
       sodipodi:end="1.5009832"
       sodipodi:open="true"
       sodipodi:arc-type="arc"
       d="m 179.08508,133.3774 a 0.74316525,0.74699217 0 0 1 -0.73019,-0.74362 0.74316525,0.74699217 0 0 1 0.72371,-0.74999 0.74316525,0.74699217 0 0 1 0.76176,0.71089 0.74316525,0.74699217 0 0 1 -0.69047,0.78102" />
  </g>
</svg>
