<?xml version="1.0" encoding="UTF-8" standalone="no"?>
<svg
   xmlns:osb="http://www.openswatchbook.org/uri/2009/osb"
   xmlns:dc="http://purl.org/dc/elements/1.1/"
   xmlns:cc="http://creativecommons.org/ns#"
   xmlns:rdf="http://www.w3.org/1999/02/22-rdf-syntax-ns#"
   xmlns:svg="http://www.w3.org/2000/svg"
   xmlns="http://www.w3.org/2000/svg"
   xmlns:sodipodi="http://sodipodi.sourceforge.net/DTD/sodipodi-0.dtd"
   xmlns:inkscape="http://www.inkscape.org/namespaces/inkscape"
   width="3.5mm"
   height="3.5mm"
   viewBox="0 0 3.5 3.5"
   version="1.1"
   id="svg8"
   inkscape:version="1.0 (4035a4fb49, 2020-05-01)"
   sodipodi:docname="polar.svg">
  <defs
     id="defs2">
    <linearGradient
       osb:paint="solid"
       id="linearGradient1378">
      <stop
         id="stop1376"
         offset="0"
         style="stop-color:#000000;stop-opacity:1;" />
    </linearGradient>
  </defs>
  <sodipodi:namedview
     id="base"
     pagecolor="#ffffff"
     bordercolor="#666666"
     borderopacity="1.0"
     inkscape:pageopacity="0.0"
     inkscape:pageshadow="2"
     inkscape:zoom="40.904164"
     inkscape:cx="6.61216"
     inkscape:cy="8.7136565"
     inkscape:document-units="mm"
     inkscape:current-layer="layer2"
     inkscape:document-rotation="0"
     showgrid="false"
     inkscape:window-width="1902"
     inkscape:window-height="1033"
     inkscape:window-x="0"
     inkscape:window-y="0"
     inkscape:window-maximized="0" />
  <metadata
     id="metadata5">
    <rdf:RDF>
      <cc:Work
         rdf:about="">
        <dc:format>image/svg+xml</dc:format>
        <dc:type
           rdf:resource="http://purl.org/dc/dcmitype/StillImage" />
        <dc:title />
      </cc:Work>
    </rdf:RDF>
  </metadata>
  <g
     inkscape:label="Rectangle"
     id="layer6"
     inkscape:groupmode="layer"
     transform="translate(-172.60204,-125.96507)">
    <rect
       rx="7.3447013e-18"
       y="125.96507"
       x="172.60204"
       height="3.5"
       width="3.5"
       id="rect1332"
       style="font-variation-settings:normal;opacity:1;vector-effect:none;fill:#1a1a1a;fill-opacity:1;fill-rule:evenodd;stroke-width:0.265;stroke-linecap:butt;stroke-linejoin:miter;stroke-miterlimit:4;stroke-dasharray:none;stroke-dashoffset:0;stroke-opacity:1;stop-color:#000000;stop-opacity:1" />
  </g>
  <g
     style="display:inline"
     sodipodi:insensitive="true"
     inkscape:label="Grid"
     id="layer3"
     inkscape:groupmode="layer"
     transform="translate(-172.60204,-125.96507)">
    <path
       id="path1216"
       d="m 172.68197,127.31891 3.26653,0.0487 v 0 z"
       style="display:inline;fill:#f9f9f9;stroke:#969696;stroke-width:0.06;stroke-linecap:butt;stroke-linejoin:miter;stroke-miterlimit:4;stroke-dasharray:none;stroke-opacity:1" />
    <path
       id="path1244"
       d="m 175.16243,128.84854 -2.48046,-1.52963 2.92931,-0.83272"
       style="display:inline;fill:none;stroke:#969696;stroke-width:0.06;stroke-linecap:butt;stroke-linejoin:miter;stroke-miterlimit:4;stroke-dasharray:none;stroke-opacity:1" />
    <path
       id="path1246"
       d="m 174.16434,129.26786 -1.48237,-1.94895 2.97656,0.80911"
       style="display:inline;fill:none;stroke:#969696;stroke-width:0.06;stroke-linecap:butt;stroke-linejoin:miter;stroke-miterlimit:4;stroke-dasharray:none;stroke-opacity:1" />
    <path
       id="path1248"
       d="m 172.68197,127.31891 2.03162,-1.28157"
       style="display:inline;fill:#f9f9f9;stroke:#969696;stroke-width:0.06;stroke-linecap:butt;stroke-linejoin:miter;stroke-miterlimit:4;stroke-dasharray:none;stroke-opacity:1" />
    <path
       id="path1250"
       d="m 173.64462,129.44503 -0.96265,-2.12612 0.43113,2.12612"
       style="display:inline;fill:none;stroke:#969696;stroke-width:0.06;stroke-linecap:butt;stroke-linejoin:miter;stroke-miterlimit:4;stroke-dasharray:none;stroke-opacity:1" />
  </g>
  <g
     style="display:inline"
     inkscape:label="Draw"
     id="layer2"
     inkscape:groupmode="layer"
     transform="translate(-172.60204,-125.96507)">
    <path
       id="path1199"
       d="m 173.54979,126.36837 0.58048,-0.20463 0.38003,-0.0209 0.29232,0.0668 0.37167,0.20467 0.31321,0.28397 0.12111,0.35915"
       style="display:inline;fill:none;stroke:#bfbfbf;stroke-width:0.16;stroke-linecap:butt;stroke-linejoin:miter;stroke-miterlimit:4;stroke-dasharray:none;stroke-opacity:1" />
    <path
       id="path1201"
       d="m 175.60861,127.05743 0.0167,0.38002 -0.0585,0.34662 -0.21712,0.34244 -0.24221,0.28815 -0.2798,0.26727 -0.30485,0.22133"
       style="display:inline;fill:none;stroke:#bfbfbf;stroke-width:0.16;stroke-linecap:butt;stroke-linejoin:miter;stroke-miterlimit:4;stroke-dasharray:none;stroke-opacity:1" />
    <path
       id="path1203"
       d="m 174.52283,128.90326 -0.40926,0.23803"
       style="display:inline;fill:#f9f9f9;stroke:#bfbfbf;stroke-width:0.16;stroke-linecap:butt;stroke-linejoin:miter;stroke-miterlimit:4;stroke-dasharray:none;stroke-opacity:1" />
    <path
       id="path1322"
       d="m 174.11357,129.14129 -0.57333,0.14257"
       style="display:inline;fill:#f9f9f9;stroke:#bfbfbf;stroke-width:0.16;stroke-linecap:butt;stroke-linejoin:miter;stroke-miterlimit:4;stroke-dasharray:none;stroke-opacity:1" />
    <path
       id="path1324"
       d="m 173.54024,129.28386 -0.74097,0.0137"
       style="display:inline;fill:#f9f9f9;stroke:#bfbfbf;stroke-width:0.16;stroke-linecap:butt;stroke-linejoin:miter;stroke-miterlimit:4;stroke-dasharray:none;stroke-opacity:1" />
  </g>
  <g
     inkscape:label="Dots"
     id="layer5"
     inkscape:groupmode="layer"
     transform="translate(-172.60204,-125.96507)"
     style="display:inline">
    <path
       d="m 173.50876,126.5066 a 0.09,0.09000685 0 0 1 -0.0884,-0.0896 0.09,0.09000685 0 0 1 0.0876,-0.0904 0.09,0.09000685 0 0 1 0.0923,0.0857 0.09,0.09000685 0 0 1 -0.0836,0.0941"
       sodipodi:arc-type="arc"
       sodipodi:open="true"
       sodipodi:end="1.5009832"
       sodipodi:start="1.5882496"
       sodipodi:ry="0.090006851"
       sodipodi:rx="0.090000004"
       sodipodi:cy="126.41661"
       sodipodi:cx="173.51033"
       sodipodi:type="arc"
       id="path1260"
       style="display:inline;fill:#b3b3b3;fill-opacity:1;fill-rule:evenodd;stroke-width:0.362082" />
    <path
       d="m 173.15761,126.84586 a 0.09,0.09000685 0 0 1 -0.0884,-0.0896 0.09,0.09000685 0 0 1 0.0876,-0.0904 0.09,0.09000685 0 0 1 0.0923,0.0857 0.09,0.09000685 0 0 1 -0.0836,0.0941"
       sodipodi:arc-type="arc"
       sodipodi:open="true"
       sodipodi:end="1.5009832"
       sodipodi:start="1.5882496"
       sodipodi:ry="0.090006851"
       sodipodi:rx="0.090000004"
       sodipodi:cy="126.75587"
       sodipodi:cx="173.15918"
       sodipodi:type="arc"
       id="path1260-0-9"
       style="display:inline;fill:#b3b3b3;fill-opacity:1;fill-rule:evenodd;stroke-width:0.362083" />
    <path
       style="display:inline;fill:#b3b3b3;fill-opacity:1;fill-rule:evenodd;stroke-width:0.362083"
       id="path1260-0-1-7"
       sodipodi:type="arc"
       sodipodi:cx="172.9904"
       sodipodi:cy="126.92193"
       sodipodi:rx="0.090000004"
       sodipodi:ry="0.090006851"
       sodipodi:start="1.5882496"
       sodipodi:end="1.5009832"
       sodipodi:open="true"
       sodipodi:arc-type="arc"
       d="m 172.98883,127.01192 a 0.09,0.09000685 0 0 1 -0.0884,-0.0896 0.09,0.09000685 0 0 1 0.0876,-0.0904 0.09,0.09000685 0 0 1 0.0923,0.0857 0.09,0.09000685 0 0 1 -0.0836,0.0941" />
    <path
       style="display:inline;fill:#b3b3b3;fill-opacity:1;fill-rule:evenodd;stroke-width:0.362083"
       id="path1260-0"
       sodipodi:type="arc"
       sodipodi:cx="173.33582"
       sodipodi:cy="126.58298"
       sodipodi:rx="0.090000004"
       sodipodi:ry="0.090006851"
       sodipodi:start="1.5882496"
       sodipodi:end="1.5009832"
       sodipodi:open="true"
       sodipodi:arc-type="arc"
       d="m 173.33424,126.67297 a 0.09,0.09000685 0 0 1 -0.0884,-0.0896 0.09,0.09000685 0 0 1 0.0876,-0.0904 0.09,0.09000685 0 0 1 0.0923,0.0857 0.09,0.09000685 0 0 1 -0.0836,0.0941" />
  </g>
</svg>
