<?xml version="1.0" encoding="UTF-8" standalone="no"?>
<svg
   sodipodi:docname="polar.svg"
   inkscape:version="1.1.1 (3bf5ae0d25, 2021-09-20)"
   id="svg8"
   version="1.1"
   viewBox="0 0 30.58672 30.74197"
   height="30.74197mm"
   width="30.58672mm"
   xmlns:inkscape="http://www.inkscape.org/namespaces/inkscape"
   xmlns:sodipodi="http://sodipodi.sourceforge.net/DTD/sodipodi-0.dtd"
   xmlns="http://www.w3.org/2000/svg"
   xmlns:svg="http://www.w3.org/2000/svg"
   xmlns:rdf="http://www.w3.org/1999/02/22-rdf-syntax-ns#"
   xmlns:cc="http://creativecommons.org/ns#"
   xmlns:dc="http://purl.org/dc/elements/1.1/">
  <defs
     id="defs2">
    <linearGradient
       id="linearGradient1378"
       inkscape:swatch="solid">
      <stop
         style="stop-color:#000000;stop-opacity:1;"
         offset="0"
         id="stop1376" />
    </linearGradient>
  </defs>
  <sodipodi:namedview
     inkscape:window-maximized="1"
     inkscape:window-y="-8"
     inkscape:window-x="-8"
     inkscape:window-height="1122"
     inkscape:window-width="1920"
     showgrid="false"
     inkscape:document-rotation="0"
     inkscape:current-layer="layer6"
     inkscape:document-units="mm"
     inkscape:cy="60.45763"
     inkscape:cx="-2.5632621"
     inkscape:zoom="5.6568542"
     inkscape:pageshadow="2"
     inkscape:pageopacity="0.0"
     borderopacity="1.0"
     bordercolor="#666666"
     pagecolor="#ffffff"
     id="base"
     inkscape:pagecheckerboard="0" />
  <metadata
     id="metadata5">
    <rdf:RDF>
      <cc:Work
         rdf:about="">
        <dc:format>image/svg+xml</dc:format>
        <dc:type
           rdf:resource="http://purl.org/dc/dcmitype/StillImage" />
        <dc:title />
      </cc:Work>
    </rdf:RDF>
  </metadata>
  <g
     transform="translate(-172.60204,-125.96507)"
     inkscape:groupmode="layer"
     id="layer6"
     inkscape:label="Rectangle">
    <path
       d="m 172.60204,125.96507 h 30.58672 c 0,0 0,0 0,0 v 30.74197 c 0,0 0,0 0,0 h -30.58672 c 0,0 0,0 0,0 v -30.74197 c 0,0 0,0 0,0 z"
       style="font-variation-settings:normal;opacity:1;vector-effect:none;fill:#333333;fill-opacity:1;fill-rule:evenodd;stroke-width:2.3217;stroke-linecap:butt;stroke-linejoin:miter;stroke-miterlimit:4;stroke-dasharray:none;stroke-dashoffset:0;stroke-opacity:1;stop-color:#000000;stop-opacity:1"
       id="rect1332" />
  </g>
  <g
     transform="matrix(8.2573913,0,0,8.2992811,-1423.5911,-1044.5896)"
     id="layer3"
     inkscape:label="Grid"
     style="display:inline">
    <path
       style="display:inline;fill:#f9f9f9;stroke:#bebebe;stroke-width:0.06;stroke-linecap:butt;stroke-linejoin:miter;stroke-miterlimit:4;stroke-dasharray:none;stroke-opacity:1"
       d="m 172.68197,127.31891 3.26653,0.0487 v 0 z"
       id="path1216" />
    <path
       style="display:inline;fill:none;stroke:#bebebe;stroke-width:0.06;stroke-linecap:butt;stroke-linejoin:miter;stroke-miterlimit:4;stroke-dasharray:none;stroke-opacity:1"
       d="m 175.16243,128.84854 -2.48046,-1.52963 2.92931,-0.83272"
       id="path1244" />
    <path
       style="display:inline;fill:none;stroke:#bebebe;stroke-width:0.06;stroke-linecap:butt;stroke-linejoin:miter;stroke-miterlimit:4;stroke-dasharray:none;stroke-opacity:1"
       d="m 174.16434,129.26786 -1.48237,-1.94895 2.97656,0.80911"
       id="path1246" />
    <path
       style="display:inline;fill:#f9f9f9;stroke:#bebebe;stroke-width:0.06;stroke-linecap:butt;stroke-linejoin:miter;stroke-miterlimit:4;stroke-dasharray:none;stroke-opacity:1"
       d="m 172.68197,127.31891 2.03162,-1.28157"
       id="path1248" />
    <path
       style="display:inline;fill:none;stroke:#bebebe;stroke-width:0.06;stroke-linecap:butt;stroke-linejoin:miter;stroke-miterlimit:4;stroke-dasharray:none;stroke-opacity:1"
       d="m 173.64462,129.44503 -0.96265,-2.12612 0.43113,2.12612"
       id="path1250" />
  </g>
  <g
     transform="translate(-172.60204,-125.96507)"
     inkscape:groupmode="layer"
     id="layer2"
     inkscape:label="Draw"
     style="display:inline">
    <path
       style="display:inline;fill:none;stroke:#d6d6d6;stroke-width:2.5;stroke-linecap:butt;stroke-linejoin:miter;stroke-miterlimit:4;stroke-dasharray:none;stroke-opacity:1"
       d="m 182.07947,130.14209 4.79324,-1.69828 3.13808,-0.17351 2.41377,0.55437 3.06903,1.69862 2.5863,2.35674 1.00004,2.98071"
       id="path1199" />
    <path
       style="display:inline;fill:none;stroke:#d6d6d6;stroke-width:2.5;stroke-linecap:butt;stroke-linejoin:miter;stroke-miterlimit:4;stroke-dasharray:none;stroke-opacity:1"
       d="m 199.07993,135.86082 0.13769,3.15389 -0.48304,2.87667 -1.79287,2.84201 -2.00001,2.39145 -2.31043,2.21812 -2.51725,1.8369"
       id="path1201" />
    <path
       style="display:inline;fill:#f9f9f9;stroke:#d6d6d6;stroke-width:2.5;stroke-linecap:butt;stroke-linejoin:miter;stroke-miterlimit:4;stroke-dasharray:none;stroke-opacity:1"
       d="m 190.11425,151.17986 -3.37941,1.97546"
       id="path1203" />
    <path
       style="display:inline;fill:#f9f9f9;stroke:#d6d6d6;stroke-width:2.5;stroke-linecap:butt;stroke-linejoin:miter;stroke-miterlimit:4;stroke-dasharray:none;stroke-opacity:1"
       d="m 186.73484,153.15532 -4.73423,1.18326"
       id="path1322" />
    <path
       style="display:inline;fill:#f9f9f9;stroke:#d7d7d7;stroke-width:2.5;stroke-linecap:butt;stroke-linejoin:miter;stroke-miterlimit:4;stroke-dasharray:none;stroke-opacity:1"
       d="m 182.00061,154.33858 -6.11848,0.11373"
       id="path1324" />
  </g>
  <g
     inkscape:groupmode="layer"
     style="display:inline"
     transform="translate(-172.60204,-125.96507)"
     id="layer5"
     inkscape:label="Dots">
    <path
       style="display:inline;fill:#ececec;fill-opacity:1;fill-rule:evenodd;stroke-width:2.99743;stroke:none;stroke-opacity:1"
       id="path1260"
       sodipodi:type="arc"
       sodipodi:cx="180.53914"
       sodipodi:cy="131.24971"
       sodipodi:rx="0.74316525"
       sodipodi:ry="0.74699217"
       sodipodi:start="1.5882496"
       sodipodi:end="1.5009832"
       sodipodi:open="true"
       sodipodi:arc-type="arc"
       d="m 180.52617,131.99659 a 0.74316525,0.74699217 0 0 1 -0.73019,-0.74362 0.74316525,0.74699217 0 0 1 0.72371,-0.75 0.74316525,0.74699217 0 0 1 0.76176,0.7109 0.74316525,0.74699217 0 0 1 -0.69047,0.78101" />
    <path
       style="display:inline;fill:#ececec;fill-opacity:1;fill-rule:evenodd;stroke-width:2.99743;stroke:none;stroke-opacity:1"
       id="path1260-0-9"
       sodipodi:type="arc"
       sodipodi:cx="177.63954"
       sodipodi:cy="134.06537"
       sodipodi:rx="0.74316525"
       sodipodi:ry="0.74699217"
       sodipodi:start="1.5882496"
       sodipodi:end="1.5009832"
       sodipodi:open="true"
       sodipodi:arc-type="arc"
       d="m 177.62657,134.81225 a 0.74316525,0.74699217 0 0 1 -0.73019,-0.74362 0.74316525,0.74699217 0 0 1 0.72371,-0.75 0.74316525,0.74699217 0 0 1 0.76176,0.7109 0.74316525,0.74699217 0 0 1 -0.69047,0.78101" />
    <path
       d="m 176.23291,136.19038 a 0.74316525,0.74699217 0 0 1 -0.73019,-0.74362 0.74316525,0.74699217 0 0 1 0.72371,-0.75 0.74316525,0.74699217 0 0 1 0.76176,0.7109 0.74316525,0.74699217 0 0 1 -0.69047,0.78101"
       sodipodi:arc-type="arc"
       sodipodi:open="true"
       sodipodi:end="1.5009832"
       sodipodi:start="1.5882496"
       sodipodi:ry="0.74699217"
       sodipodi:rx="0.74316525"
       sodipodi:cy="135.4435"
       sodipodi:cx="176.24588"
       sodipodi:type="arc"
       id="path1260-0-1-7"
       style="display:inline;fill:#ececec;fill-opacity:1;fill-rule:evenodd;stroke:none;stroke-width:2.99743;stroke-opacity:1" />
    <path
       d="m 179.08508,133.3774 a 0.74316525,0.74699217 0 0 1 -0.73019,-0.74362 0.74316525,0.74699217 0 0 1 0.72371,-0.74999 0.74316525,0.74699217 0 0 1 0.76176,0.71089 0.74316525,0.74699217 0 0 1 -0.69047,0.78102"
       sodipodi:arc-type="arc"
       sodipodi:open="true"
       sodipodi:end="1.5009832"
       sodipodi:start="1.5882496"
       sodipodi:ry="0.74699217"
       sodipodi:rx="0.74316525"
       sodipodi:cy="132.63052"
       sodipodi:cx="179.09805"
       sodipodi:type="arc"
       id="path1260-0"
       style="display:inline;fill:#ececec;fill-opacity:1;fill-rule:evenodd;stroke-width:2.99743;stroke:none;stroke-opacity:1" />
  </g>
</svg>
